<svg xmlns="http://www.w3.org/2000/svg" width="258" height="106" viewBox="104 -28 258 106" enable-background="new 104 -28 258 106">
 <path d="m361.9 23.5c-.6-1.3-1.2-2.6-2.1-3.8-.5-.7-.8-1.3-.7-2.1.3-1.1-.5-1.6-1.2-2-.8-.4-1-1-1.1-1.8-.1-1.9-.3-3.7-.5-5.5 0-.3-.1-.5-.1-.8 0-.1 0-.3 0-.4-.2-2.2-.5-4.3-.6-6.5-.1-1.7-.3-1.7-1.9-1.3-.7.2-1.1 0-1.6-.3-.9-.6-2-.7-2.9-1.2-.3-.2-.8-.2-1.1-.6-.5-.6-1.2-.7-1.8-1.1-.3-.2-.6-.2-.9.2-.4.5-1.1 1-1.9.6-.6-.3-1.2-.6-1.8 0-.5.4-1.2.4-2 .5-.7 0-1.6 0-1.7 1.1 0 .2-.2.3-.4.3-.7-.5-.9.2-1.3.8-.2-1.7-2.2-.7-2.4-2.2-.7.8-1.3.8-2.1.1-.3-.2-.7-.4-.7-.1-.1.5-.8.7-.7 1.3 0 .2.1.6-.3.6-.3 0-.5-.3-.6-.6-.1-.3 0-.6-.1-1.1-.4.4-.9.4-1.2.9-.2.4-.7.3-1-.1-.2-.3-.2-.9-.9-.5-.1.1-.3-.1-.4-.3-.1-1-.5-.3-.8-.2-.2.2-.5.4-.7.6-.3.5-.8.3-1.2.3-.4 0-.2-.4-.2-.8.1-.6-.4-.4-.6-.4-.3 0-.8 0-.7-.4.2-1-.3-.8-.9-.7-.6.1-1.3-.2-1.7.6-.1.3-.6-.2-.9-.3-.3-.2-.7-.6-1.1-.3-.7.5-1.4.1-1.9-.1-.5-.2-1-.4-1.5-.4-.7 0-1-.2-1-.9 0-.7-.6-1-1.2-1.3-.6-.3-.4.7-1.1.4-.1-.1-.3-.6-.8-.4-1.4.5-1.6.4-2.3-.8-.2-.4-.4-.8-1-.4-.3.1-.4-.1-.4-.4 0-.4 0-.8 0-1.2-.1-5.9-.2-11.9-.2-17.8-8.1 0-16.2 0-24.4 0 .2.7.1 1.5.1 2.2-.1 10.7-.3 21.5-.4 32.2 0 .3 0 .6 0 .9 0 3.2-.1 6.5-.1 9.7-.3.3-.7.2-1 .3-2.2 0-4.3 0-6.5 0-1.1 0-2.2 0-3.2 0-1.5-.2-3-.2-4.5-.1-.6 0-1.2 0-1.8 0-4.5-.2-8.9-.4-13.4-.6 0 .3 0 .5 0 .8 0 .3 0 .7 0 1 1.1.3 2.1.7 2.5 1.8.5 1.4 1.1 2.6 2.8 2.9.1 0 .2.1.3.2.9 1 1.7 2.2 3 2.7.2.1.4.4.4.7.2 1.1 1.1 1.7 1.9 2.1 1.5.8 2.8 1.8 3.8 3.2.2.8 0 1.7.8 2.3.7.6.9 1.5.7 2.4-.4 1.8.9 3.1 1.8 4.2.9 1 2.2 1.9 3.4 2.8.7.5 1.6.6 2.3 1 1.5.9 2.9 1.9 4.5 2.6.9.4 1.4.3 1.8-.5.2-.3.4-.4.6-.6.6-.5 1.5-.8 1.2-1.9 0-.2.1-.4.3-.6.3-.4.4-.8.4-1.3.1-.9.6-1.6 1.5-2.1.7-.4 1.7-.3 2.1-.7.5-.8 1-.6 1.6-.4.3.1.7.3 1 .3 1.6-.2 3.1.4 4.6.3.6 0 1.2.1 1.5.6 1 1.6 2.6 2.5 4 3.6 1 .8 2 1.7 2.4 2.9.5 1.5 1.4 2.8 2.2 4.1.4.6.7 1.3.9 2 .3 1.2.6 2.6 2.3 2.6.5 1.1 1.3 2.1 1.9 3.2.4.8 1.1 1.5 2.1 1.9.9.3 1.5 1.1 1.3 2.2-.1.3 0 .7.2 1 .5.6.6 1.3.5 2 0 .4.1.7.3 1 1.1 1.4 1.9 2.9 2.4 4.6.3.9.9 1.6 2 1.5.8-.1 1.3.3 1.9.6 1.6.7 3.4.9 4.7 2.2 0 .1.2 0 .3 0 1.4-.3 2.8 0 4.2 0 .8 0 2.1 1 2.3 1.6.4 0 .8 0 1.2 0-.3-1 .5-1 1.1-1.1.5-.1.6-.4.6-.8 0-.3-.1-.7-.4-.6-.9.2-.9-.5-1.2-.9-.5-.7-.3-1.8-1.2-2.2-.2-.1 0-.3 0-.5 0-1.1-.2-2.1-.8-3-.3-.5-.4-.9-.6-1.4-.2-.6.6-.6.5-1-.1-.7.4-1.2.2-1.9-.2-.5-.9 0-1.2-.6.3-.2.4-.7.9-.6.7.2 1 .1 1.1-.6.1-.8.4-1.5.7-2.2.2-.5.1-.8-.3-1.2-.5-.6-1.3-.6-2-1.4 1.1.4 2-.4 2.8.3 0 0 .2-.1.2-.1.8-.6 1.1-1.4 1.2-2.6-.7.7-1.1.9-1.6.2.1 0 .1-.1.1-.1.4-.1.4-.4.3-.7.7 0 1.7.5 1.9-.7.5.1-.1.7.4.7.9-.4.7-1.3 1.1-2 .3-.6.4-1 .9-.1.2.4.4.4.7.2.3-.2.6-.3.9-.4.8-.4.8-.9.1-1.3-.5-.3-1-.5-1.4-.8-.2-.2-.5-.5-.2-.8.2-.2.5 0 .7.2.6.6 1 .5 1.3-.3.3 0 .3.4.4.4.7-.3 1.2-.2 1.6.5.6-.4 1.5-.5 1.9-1.2.3-.4.5-.5.9-.6.6 0 1.1 0 1.7-.2 1.4-.4 1.9-2 3.4-2.3.1 0 .1-.3.2-.4.2-.5.4-1 .6-1.5.1-.2 0-.4.3-.4 1.4-.2 2.2-2.1 1.3-3.2-.4-.5-.8-1-.9-1.6 0-.2-.2-.4 0-.5.2-.1.5 0 .6.2.1.1.2.4.5.4.1-.1.1-.3.2-.4.3-.4.8-1 1.3-.7.6.4.2.9-.3 1.3-.2.1-.2.3-.1.5.1.2.4.3.6.3.3-.1.6-.3.7-.1.4.9.9.3 1.3.1 1.4-.7 2.8-1.5 4.3-1.9.5-.1 1.2-.1.5-.9-.2-.2 0-.5 0-.8.3-1.1 1.5-1.9 1.2-3.3 0-.7-.4-1.3-.4-1.9 0-1-.3-2.1.2-3 .4-.8.8-1.6.8-2.5 0-.2.2-.2.4-.3 0-.5 0-1.1 0-1.6-.2-.4-.4-.6-.5-.7" fill="#ec2027" fill-rule="evenodd"/>
 <path d="M338.9,15.4h-15.3v37.3H312V15.4h-15.4V4.7h42.3V15.4z" fill="#1c3c6c"/>
 <g fill="#fff">
  <path d="m154.2 50.8v2h-11.6l-3.1-8.4h-21.4l-3.1 8.4h-11.4v-2l17.8-46.1h15l17.8 46.1"/>
  <path d="M195.6,42v10.8h-34.9V4.7h11.6V42H195.6z"/>
  <path d="M215,15.4v7.9h21.7v10.5H215V42h23.8v10.8h-35.3V4.7h35.3v10.8H215z"/>
  <path d="m244.9 50.8l15-22.1-15-22.1v-2h12.5l10.4 15.9 10.4-15.9h12.4v2l-15 22.1 15 22.1v2h-12.4l-10.4-15.9-10.4 15.9h-12.4v-2z"/>
  <path d="M162.7,61.9v1.6h3.6v1.8h-3.6v3h-2V60h5.9v1.8H162.7z"/>
  <path d="m170.7 65.8v-3.3c.5-1.5 2.2-2.7 4.3-2.7 2.1 0 3.7 1.2 4.2 2.7v3.3c-.5 1.5-2.2 2.7-4.2 2.7-2.1 0-3.7-1.2-4.3-2.7m6.5-.5v-2.3c-.2-.7-1.1-1.3-2.2-1.3-1.1 0-2 .7-2.2 1.3v2.3c.2.7 1.1 1.3 2.2 1.3 1.1 0 2-.6 2.2-1.3"/>
  <path d="m191 67.9v.3h-2l-1.8-2.8h-1.3v2.8h-2v-8.2h3.8c1.4 0 2.6.8 2.9 1.8v1.9c-.2.6-.8 1.1-1.5 1.5l1.9 2.7m-5.1-4.1h1.6c.5 0 1-.3 1.1-.6v-.8c-.2-.3-.6-.6-1.1-.6h-1.6v2"/>
  <path d="m207.2 65.3l1.8.7c-.6 1.4-2.1 2.4-3.9 2.4-2 0-3.7-1.2-4.2-2.7v-3.3c.5-1.5 2.1-2.7 4.2-2.7 1.9 0 3.4 1 3.9 2.4l-1.8.7c-.3-.7-1-1.3-2.1-1.3s-1.9.7-2.1 1.3v2.3c.2.7 1 1.3 2.1 1.3s1.8-.4 2.1-1.1"/>
  <path d="m213 65.8v-3.3c.5-1.5 2.2-2.7 4.3-2.7 2.1 0 3.7 1.2 4.2 2.7v3.3c-.5 1.5-2.2 2.7-4.2 2.7-2.1 0-3.7-1.2-4.3-2.7m6.5-.5v-2.3c-.2-.7-1.1-1.3-2.2-1.3-1.1 0-2 .7-2.2 1.3v2.3c.2.7 1.1 1.3 2.2 1.3 1.1 0 2-.6 2.2-1.3"/>
  <path d="m233.5 60v8.3h-2l-3.4-5.4v5.4h-1.9v-8.3h2.2l3.2 5v-5h1.9"/>
  <path d="m242 63.5h4.5v2.7c-.5 1.2-2 2.3-4.1 2.3-2.1 0-3.7-1.2-4.2-2.7v-3.3c.5-1.5 2.2-2.7 4.2-2.7 2.1 0 3.5 1.1 4.1 2.4l-1.9.7c-.3-.6-1.1-1.2-2.2-1.2-1.1 0-2 .7-2.2 1.3v2.3c.2.7 1.1 1.3 2.2 1.3 1.2 0 1.9-.7 2.1-1.1v-.3h-2.5v-1.7"/>
  <path d="m258.2 67.9v.3h-2l-1.8-2.8h-1.3v2.8h-2v-8.2h3.8c1.4 0 2.6.8 2.9 1.8v1.9c-.2.6-.8 1.1-1.5 1.5l1.9 2.7m-5.1-4.1h1.6c.5 0 1-.3 1.1-.6v-.8c-.2-.3-.6-.6-1.1-.6h-1.6v2"/>
  <path d="M264.5,61.9v1.4h3.7V65h-3.7v1.4h4.1v1.8h-6.1V60h6.1v1.8H264.5z"/>
  <path d="m272.6 66.4l1.7-.8c.4.7 1.1 1.1 1.9 1.1.7 0 1.2-.2 1.4-.6v-.5c-.1-.2-.3-.3-.7-.4-.6-.2-1.4-.1-2.2-.4-.9-.3-1.5-.8-1.8-1.5v-1.7c.5-.9 1.7-1.8 3.3-1.8 1.7 0 2.9.8 3.5 2l-1.7.8c-.4-.7-1-1-1.7-1-.6 0-1.1.2-1.3.6v.4c.1.2.3.4.6.5.5.2 1.4.1 2.2.4.9.3 1.5.8 1.8 1.5v1.8c-.5.9-1.8 1.8-3.4 1.8-1.7-.1-3.1-1-3.6-2.2"/>
  <path d="m283.5 66.4l1.7-.8c.4.7 1.1 1.1 1.9 1.1.7 0 1.2-.2 1.4-.6v-.5c-.1-.2-.3-.3-.7-.4-.6-.2-1.4-.1-2.2-.4-.9-.3-1.5-.8-1.8-1.5v-1.7c.5-.9 1.7-1.8 3.3-1.8 1.7 0 2.9.8 3.5 2l-1.7.8c-.4-.7-1-1-1.7-1-.6 0-1.1.2-1.3.6v.4c.1.2.3.4.6.5.5.2 1.4.1 2.2.4.9.3 1.5.8 1.8 1.5v1.8c-.5.9-1.8 1.8-3.4 1.8-1.7-.1-3.1-1-3.6-2.2"/>
 </g>
 <path fill="#1c3c6c" d="m129 17.2l2.4 7.1h7.5l-6.1 4.5 2.3 7.1-6.1-4.4-6 4.4 2.3-7.1-6.1-4.5h7.5z"/>
</svg>
