<?xml version="1.0" encoding="utf-8"?>
<!-- Generator: Adobe Illustrator 19.0.0, SVG Export Plug-In . SVG Version: 6.00 Build 0)  -->
<svg version="1.1" id="Layer_1" xmlns="http://www.w3.org/2000/svg" xmlns:xlink="http://www.w3.org/1999/xlink" x="0px" y="0px"
	 width="246px" height="102px" viewBox="159.5 -26 246 102" style="enable-background:new 159.5 -26 246 102;" xml:space="preserve"
	>
<style type="text/css">
	.st0{fill-rule:evenodd;clip-rule:evenodd;fill:#EC2027;}
	.st1{fill:#1C3C6C;}
	.st2{fill:#EC2027;}
</style>
<path class="st0" d="M405.2,22.7c-0.6-1.3-1.2-2.5-2-3.6c-0.5-0.6-0.7-1.2-0.7-2c0.3-1-0.4-1.5-1.1-1.9c-0.8-0.4-1-1-1-1.8
	c-0.1-1.8-0.3-3.5-0.5-5.3c0-0.3-0.1-0.5-0.1-0.8c0-0.1,0-0.3,0-0.4c-0.2-2.1-0.4-4.1-0.6-6.2c-0.1-1.6-0.3-1.7-1.8-1.2
	c-0.6,0.2-1,0-1.5-0.3c-0.8-0.6-1.9-0.6-2.8-1.2C392.8-2,392.3-2,392-2.4c-0.5-0.5-1.2-0.7-1.7-1.1c-0.3-0.2-0.5-0.2-0.8,0.2
	c-0.4,0.5-1,1-1.8,0.6c-0.6-0.3-1.1-0.5-1.7,0c-0.5,0.4-1.2,0.4-1.9,0.4c-0.6,0-1.5,0-1.6,1.1c0,0.2-0.2,0.3-0.4,0.2
	c-0.7-0.4-0.8,0.1-1.3,0.7c-0.1-1.6-2.1-0.7-2.3-2.1c-0.7,0.7-1.2,0.7-2,0.1c-0.2-0.2-0.7-0.4-0.7-0.1c-0.1,0.5-0.7,0.7-0.7,1.2
	c0,0.2,0.1,0.6-0.3,0.6c-0.3,0-0.5-0.3-0.6-0.5c-0.1-0.3,0-0.6-0.1-1c-0.3,0.4-0.8,0.4-1.1,0.8c-0.2,0.4-0.7,0.3-0.9-0.1
	c-0.2-0.3-0.2-0.9-0.8-0.5c-0.1,0.1-0.3-0.1-0.3-0.3c-0.1-0.9-0.5-0.3-0.8-0.1c-0.2,0.2-0.5,0.3-0.6,0.6c-0.3,0.5-0.8,0.3-1.1,0.3
	c-0.4,0-0.2-0.4-0.2-0.7c0.1-0.6-0.3-0.4-0.6-0.4c-0.3,0-0.8,0-0.7-0.4c0.2-0.9-0.2-0.8-0.9-0.7c-0.6,0.1-1.2-0.2-1.6,0.6
	c-0.1,0.3-0.6-0.1-0.9-0.3c-0.3-0.2-0.7-0.6-1-0.3c-0.7,0.5-1.3,0.1-1.8-0.1c-0.5-0.2-0.9-0.4-1.4-0.3c-0.6,0-0.9-0.2-1-0.9
	c0-0.7-0.5-1-1.1-1.2c-0.6-0.3-0.3,0.6-1,0.4c-0.1-0.1-0.2-0.6-0.8-0.4c-1.4,0.5-1.5,0.4-2.2-0.8c-0.2-0.4-0.3-0.8-0.9-0.4
	c-0.2,0.1-0.4-0.1-0.4-0.4c0-0.4,0-0.8,0-1.2c-0.1-5.7-0.1-11.3-0.2-17c-7.7,0-15.4,0-23.2,0c0.2,0.7,0.1,1.4,0,2.1
	c-0.1,10.2-0.2,20.4-0.4,30.6c0,0.3,0,0.6,0,0.9c0,3.1-0.1,6.1-0.1,9.2c-0.3,0.3-0.6,0.2-0.9,0.3c-2.1,0-4.1,0-6.2,0
	c-1,0-2.1,0-3.1,0c-1.4-0.2-2.8-0.2-4.2-0.1c-0.6,0-1.2,0-1.7,0c-4.2-0.2-8.5-0.4-12.7-0.6c0,0.3,0,0.5,0,0.8c0,0.3,0,0.6,0,1
	c1,0.3,2,0.7,2.4,1.7c0.5,1.3,1.1,2.5,2.6,2.8c0.1,0,0.2,0.1,0.2,0.2c0.9,1,1.6,2.1,2.9,2.5c0.2,0.1,0.3,0.4,0.4,0.6
	c0.2,1.1,1,1.6,1.8,2c1.5,0.8,2.7,1.7,3.6,3.1c0.2,0.8,0,1.6,0.7,2.2c0.7,0.6,0.9,1.4,0.7,2.3c-0.4,1.7,0.8,3,1.7,4
	c0.8,1,2.1,1.8,3.2,2.6c0.7,0.5,1.5,0.6,2.2,1c1.4,0.8,2.7,1.8,4.3,2.5c0.9,0.4,1.3,0.2,1.7-0.5c0.1-0.3,0.4-0.4,0.6-0.6
	c0.5-0.5,1.4-0.8,1.1-1.8c0-0.2,0.1-0.4,0.3-0.6c0.3-0.4,0.4-0.8,0.4-1.2c0.1-0.9,0.6-1.5,1.4-2c0.6-0.4,1.7-0.2,2-0.7
	c0.5-0.8,0.9-0.6,1.5-0.3c0.3,0.1,0.6,0.3,0.9,0.3c1.5-0.2,2.9,0.3,4.4,0.2c0.6,0,1.1,0.1,1.4,0.6c1,1.5,2.4,2.4,3.8,3.4
	c1,0.7,1.9,1.6,2.3,2.7c0.5,1.4,1.3,2.6,2.1,3.9c0.4,0.6,0.7,1.2,0.9,1.9c0.3,1.1,0.6,2.4,2.2,2.5c0.5,1.1,1.3,2,1.8,3
	c0.4,0.7,1,1.5,2,1.8c0.9,0.3,1.5,1.1,1.2,2.1c-0.1,0.3,0,0.7,0.2,0.9c0.4,0.6,0.6,1.2,0.5,1.9c0,0.4,0.1,0.6,0.3,0.9
	c1.1,1.3,1.8,2.8,2.3,4.4c0.3,0.9,0.8,1.6,1.9,1.4c0.7-0.1,1.2,0.3,1.8,0.6c1.5,0.7,3.2,0.8,4.5,2.1c0,0,0.2,0,0.3,0
	c1.3-0.2,2.7,0,4,0c0.7,0,2,0.9,2.1,1.6c0.4,0,0.8,0,1.2,0c-0.3-0.9,0.5-1,1-1.1c0.4-0.1,0.6-0.3,0.5-0.8c0-0.3-0.1-0.6-0.4-0.6
	c-0.8,0.2-0.8-0.4-1.1-0.9c-0.4-0.7-0.3-1.7-1.2-2.1c-0.2-0.1,0-0.3,0-0.4c0-1-0.2-2-0.7-2.8c-0.3-0.5-0.4-0.9-0.5-1.4
	c-0.2-0.6,0.5-0.6,0.5-0.9c-0.1-0.6,0.4-1.2,0.2-1.8c-0.2-0.5-0.9,0-1.1-0.6c0.3-0.1,0.4-0.7,0.8-0.6c0.7,0.2,0.9,0.1,1.1-0.6
	c0.1-0.7,0.4-1.4,0.7-2.1c0.2-0.5,0.1-0.7-0.2-1.2c-0.5-0.5-1.2-0.6-1.9-1.3c1,0.4,1.9-0.4,2.6,0.3c0,0,0.1-0.1,0.2-0.1
	c0.8-0.6,1.1-1.3,1.1-2.5c-0.6,0.7-1.1,0.9-1.5,0.2c0.1,0,0.1-0.1,0.1-0.1c0.4-0.1,0.3-0.4,0.3-0.6c0.7,0,1.6,0.5,1.9-0.7
	c0.5,0.1-0.1,0.7,0.3,0.7c0.8-0.4,0.7-1.3,1-1.9c0.3-0.6,0.4-0.9,0.8-0.1c0.2,0.3,0.4,0.4,0.7,0.2c0.3-0.2,0.6-0.3,0.9-0.4
	c0.7-0.4,0.8-0.8,0.1-1.3c-0.4-0.3-0.9-0.5-1.3-0.8c-0.2-0.2-0.5-0.5-0.2-0.7c0.2-0.2,0.5,0,0.6,0.2c0.6,0.6,1,0.4,1.3-0.3
	c0.3,0,0.3,0.4,0.4,0.4c0.7-0.3,1.2-0.2,1.5,0.5c0.6-0.4,1.4-0.5,1.8-1.1c0.2-0.4,0.5-0.5,0.9-0.5c0.5,0,1.1,0,1.6-0.2
	c1.3-0.3,1.9-1.9,3.2-2.2c0.1,0,0.1-0.3,0.2-0.4c0.2-0.5,0.4-1,0.6-1.4c0.1-0.2,0-0.3,0.3-0.4c1.4-0.2,2.1-2,1.2-3
	c-0.4-0.5-0.7-0.9-0.8-1.5c0-0.2-0.2-0.4,0-0.5c0.2-0.1,0.4,0,0.6,0.2c0.1,0.1,0.2,0.3,0.5,0.4c0-0.1,0.1-0.3,0.2-0.4
	c0.3-0.4,0.7-1,1.2-0.7c0.5,0.4,0.2,0.9-0.2,1.2c-0.2,0.1-0.2,0.3-0.1,0.5c0.1,0.2,0.3,0.3,0.6,0.2c0.2-0.1,0.6-0.3,0.7-0.1
	c0.4,0.8,0.8,0.3,1.3,0.1c1.4-0.6,2.6-1.5,4.1-1.8c0.5-0.1,1.2-0.1,0.4-0.9c-0.2-0.2,0-0.5,0-0.8c0.3-1.1,1.4-1.8,1.2-3.1
	c0-0.6-0.4-1.3-0.4-1.8c0-0.9-0.3-2,0.2-2.8c0.4-0.8,0.7-1.5,0.7-2.4c0-0.2,0.2-0.2,0.4-0.3c0-0.5,0-1,0-1.5
	C405.4,22.9,405.2,22.8,405.2,22.7z M383.3,15h-14.5v35.5h-11.1V15H343V4.8h40.2V15z"/>
<path class="st1" d="M246.9,40.3v10.2h-33.2V4.8h11v35.5H246.9z"/>
<path class="st1" d="M265.5,15v7.5h20.6v10h-20.6v7.8h22.6v10.2h-33.6V4.8h33.6V15H265.5z"/>
<path class="st1" d="M293.9,48.6l14.2-21l-14.2-21V4.8h11.9l9.8,15.1l9.9-15.1h11.8v1.9l-14.2,21l14.2,21v1.9h-11.8l-9.9-15.1
	l-9.9,15.1h-11.8V48.6z"/>
<g>
	<path class="st2" d="M199.8,59.4v1.7h3.8v1.9h-3.8v3.2h-2.1v-8.9h6.3v2H199.8z"/>
	<path class="st2" d="M208.5,63.7v-3.6c0.6-1.6,2.3-2.9,4.6-2.9c2.2,0,4,1.2,4.6,2.9v3.6c-0.5,1.6-2.3,2.9-4.6,2.9
		C210.8,66.5,209,65.3,208.5,63.7z M215.4,63.1v-2.4c-0.3-0.7-1.2-1.4-2.4-1.4c-1.2,0-2.1,0.7-2.4,1.4v2.4c0.3,0.7,1.2,1.4,2.4,1.4
		C214.3,64.5,215.2,63.8,215.4,63.1z"/>
	<path class="st2" d="M230.2,65.9v0.4H228l-2-3h-1.3v3h-2.1v-8.9h4.1c1.5,0,2.8,0.9,3.2,1.9v2c-0.2,0.6-0.8,1.2-1.6,1.6L230.2,65.9z
		 M224.7,61.5h1.7c0.6,0,1.1-0.3,1.2-0.6V60c-0.2-0.4-0.6-0.6-1.2-0.6h-1.7V61.5z"/>
	<path class="st2" d="M247.7,63.1l2,0.8c-0.6,1.5-2.2,2.6-4.2,2.6c-2.2,0-3.9-1.3-4.5-2.9v-3.6c0.6-1.6,2.3-2.9,4.5-2.9
		c2,0,3.6,1,4.2,2.6l-2,0.8c-0.3-0.7-1-1.4-2.3-1.4c-1.2,0-2.1,0.7-2.3,1.4v2.4c0.2,0.7,1.1,1.4,2.3,1.4
		C246.6,64.5,247.3,63.8,247.7,63.1z"/>
	<path class="st2" d="M253.9,63.7v-3.6c0.6-1.6,2.3-2.9,4.6-2.9c2.2,0,4,1.2,4.6,2.9v3.6c-0.5,1.6-2.3,2.9-4.6,2.9
		C256.3,66.5,254.5,65.3,253.9,63.7z M260.9,63.1v-2.4c-0.3-0.7-1.2-1.4-2.4-1.4c-1.2,0-2.1,0.7-2.4,1.4v2.4
		c0.3,0.7,1.2,1.4,2.4,1.4C259.7,64.5,260.6,63.8,260.9,63.1z"/>
	<path class="st2" d="M276,57.4v8.9h-2.2l-3.7-5.8v5.8h-2.1v-8.9h2.4l3.4,5.4v-5.4H276z"/>
	<path class="st2" d="M285,61.2h4.8v2.9c-0.6,1.2-2.2,2.4-4.4,2.4c-2.2,0-4-1.2-4.6-2.9v-3.6c0.6-1.6,2.3-2.9,4.6-2.9
		c2.3,0,3.8,1.2,4.4,2.5l-2.1,0.8c-0.4-0.7-1.1-1.3-2.3-1.3c-1.2,0-2.1,0.7-2.4,1.4v2.4c0.3,0.7,1.1,1.4,2.4,1.4
		c1.3,0,2-0.7,2.2-1.1V63H285V61.2z"/>
	<path class="st2" d="M302.5,65.9v0.4h-2.2l-2-3H297v3h-2.1v-8.9h4.1c1.5,0,2.8,0.9,3.2,1.9v2c-0.2,0.6-0.8,1.2-1.6,1.6L302.5,65.9z
		 M297,61.5h1.7c0.6,0,1.1-0.3,1.2-0.6V60c-0.2-0.4-0.6-0.6-1.2-0.6H297V61.5z"/>
	<path class="st2" d="M309.2,59.4v1.5h4v1.9h-4v1.5h4.4v2h-6.5v-8.9h6.5v2H309.2z"/>
	<path class="st2" d="M318,64.3l1.8-0.9c0.4,0.8,1.2,1.1,2,1.1c0.7,0,1.3-0.3,1.5-0.6v-0.5c-0.1-0.2-0.3-0.4-0.7-0.5
		c-0.6-0.2-1.5-0.2-2.4-0.4c-1-0.3-1.6-0.9-2-1.6v-1.8c0.5-1,1.8-1.9,3.5-1.9c1.8,0,3.2,0.9,3.7,2.1l-1.8,0.9
		c-0.4-0.7-1.1-1.1-1.9-1.1c-0.7,0-1.2,0.3-1.4,0.6v0.5c0.1,0.2,0.3,0.4,0.7,0.5c0.6,0.2,1.5,0.1,2.4,0.4c1,0.3,1.6,0.9,2,1.6v1.9
		c-0.5,1-1.9,1.9-3.6,1.9C320,66.5,318.6,65.6,318,64.3z"/>
	<path class="st2" d="M329.7,64.3l1.8-0.9c0.4,0.8,1.2,1.1,2,1.1c0.7,0,1.3-0.3,1.5-0.6v-0.5c-0.1-0.2-0.3-0.4-0.7-0.5
		c-0.6-0.2-1.5-0.2-2.4-0.4c-1-0.3-1.6-0.9-2-1.6v-1.8c0.5-1,1.8-1.9,3.5-1.9c1.8,0,3.2,0.9,3.7,2.1l-1.8,0.9
		c-0.4-0.7-1.1-1.1-1.9-1.1c-0.7,0-1.2,0.3-1.4,0.6v0.5c0.1,0.2,0.3,0.4,0.7,0.5c0.6,0.2,1.5,0.1,2.4,0.4c1,0.3,1.6,0.9,2,1.6v1.9
		c-0.5,1-1.9,1.9-3.6,1.9C331.7,66.5,330.3,65.6,329.7,64.3z"/>
</g>
<path class="st1" d="M190.8,4.8h-14.3l-17,43.8v1.9h10.9l3-8h20.3l2.9,8h11v-1.9L190.8,4.8z M189.5,34.5l-5.8-4.2l-5.8,4.2l2.2-6.8
	l-5.8-4.2h7.2l2.2-6.8l2.2,6.8h7.2l-5.8,4.2L189.5,34.5z"/>
</svg>
