<svg xmlns="http://www.w3.org/2000/svg" width="307" height="136" viewBox="129 -43 307 136" enable-background="new 129 -43 307 136">
 <g fill="#1b3c6c">
  <path d="M147.3,51h-6.5v15.9h-4.9V51h-6.5v-4.6h18V51z"/>
  <path d="m171.5 66v.8h-5l-4.5-6.9h-3.1v6.9h-4.9v-20.4h9.4c3.4 0 6.4 2 7.3 4.4v4.7c-.6 1.4-1.9 2.8-3.7 3.6l4.5 6.9m-12.7-10.3h4c1.4 0 2.4-.6 2.8-1.4v-2.1c-.4-.8-1.5-1.4-2.8-1.4h-4v4.9"/>
  <path d="m178.1 46.4h4.9v20.4h-4.9v-20.4"/>
  <path d="m210.7 66v.8h-4.9l-1.3-3.6h-9.1l-1.3 3.6h-4.9v-.8l7.6-19.6h6.4l7.5 19.6m-7.9-7.2l-2.9-7.9-2.9 7.9h5.8"/>
  <path d="m235.1 46.4v20.4h-5l-8.4-13.3v13.3h-4.8v-20.4h5.4l7.9 12.4v-12.4h4.9"/>
  <path d="M259.6,51h-6.5v15.9h-4.9V51h-6.5v-4.6h18V51z"/>
  <path d="m283.5 66v.8h-4.9l-1.3-3.6h-9.1l-1.3 3.6h-4.9v-.8l7.6-19.6h6.4l7.5 19.6m-7.8-7.2l-2.9-7.9-2.9 7.9h5.8"/>
  <path d="m306.4 50.8v5.2c-.9 2.4-3.8 4.4-7.3 4.4h-4.5v6.5h-4.9v-20.5h9.4c3.5 0 6.5 2 7.3 4.4m-4.9 1.4c-.4-.8-1.5-1.4-2.8-1.4h-4v5.2h4c1.4 0 2.4-.6 2.8-1.4v-2.4"/>
  <path d="m331.9 46.4v20.4h-4.9v-8h-8.5v8h-4.9v-20.4h4.9v7.9h8.5v-7.9h4.9"/>
  <path d="m357.5 47.2l-7.2 11.9v7.7h-4.9v-7.7l-7.4-11.8v-.9h5.2l4.5 7.5 4.5-7.5h5.2v.8z"/>
  <path d="m378.5 62.3v4.6h-14.8v-20.5h4.9v15.9h9.9"/>
  <path d="m400.2 62.3v4.6h-14.8v-20.5h4.9v15.9h9.9"/>
  <path d="m407.1 46.4h4.9v20.4h-4.9v-20.4"/>
  <path d="m418.6 62.3l4.2-2.1c1 1.8 2.7 2.6 4.6 2.6 1.7 0 2.9-.6 3.4-1.4v-1.2c-.3-.5-.8-.8-1.6-1.1-1.4-.5-3.5-.3-5.4-1-2.3-.8-3.8-2.1-4.5-3.6v-4.2c1.2-2.3 4.2-4.3 8.2-4.3 4.2 0 7.3 2 8.6 4.9l-4.3 2.1c-.9-1.7-2.5-2.5-4.3-2.5-1.6 0-2.7.6-3.2 1.4v1c.3.5.7.9 1.6 1.1 1.4.4 3.5.3 5.4 1 2.3.8 3.8 2.1 4.6 3.6v4.4c-1.2 2.3-4.3 4.3-8.4 4.3-4.4 0-7.7-2.1-8.9-5"/>
 </g>
 <g fill="#ec2027">
  <path d="m196.2 83.9v2.2h4.9v2.5h-4.9v4.1h-2.7v-11.3h8.1v2.5h-5.4"/>
  <path d="m207.3 89.4v-4.6c.7-2.1 3-3.7 5.9-3.7 2.9 0 5.1 1.6 5.8 3.7v4.6c-.7 2.1-3 3.7-5.8 3.7-2.9-.1-5.2-1.6-5.9-3.7m8.9-.8v-3.1c-.3-.9-1.5-1.9-3.1-1.9-1.6 0-2.7.9-3.1 1.9v3.1c.3.9 1.5 1.9 3.1 1.9 1.6 0 2.8-.9 3.1-1.9"/>
  <path d="m235.2 92.3v.5h-2.8l-2.5-3.9h-1.7v3.9h-2.7v-11.4h5.2c1.9 0 3.6 1.1 4 2.4v2.6c-.3.8-1.1 1.5-2 2l2.5 3.9m-7.1-5.7h2.2c.8 0 1.4-.4 1.6-.8v-1.1c-.2-.5-.8-.8-1.6-.8h-2.2v2.7"/>
  <path d="m257.5 88.7l2.5 1c-.8 2-2.9 3.3-5.4 3.3-2.8 0-5-1.6-5.7-3.7v-4.6c.7-2.1 2.9-3.7 5.7-3.7 2.6 0 4.7 1.3 5.4 3.3l-2.5 1c-.4-.9-1.3-1.8-2.9-1.8-1.6 0-2.6.9-2.9 1.9v3.1c.3.9 1.4 1.9 2.9 1.9 1.6.1 2.5-.8 2.9-1.7"/>
  <path d="m265.6 89.4v-4.6c.7-2.1 3-3.7 5.9-3.7 2.9 0 5.1 1.6 5.8 3.7v4.6c-.7 2.1-3 3.7-5.8 3.7-3-.1-5.2-1.6-5.9-3.7m8.9-.8v-3.1c-.3-.9-1.5-1.9-3.1-1.9-1.6 0-2.7.9-3.1 1.9v3.1c.3.9 1.5 1.9 3.1 1.9 1.6 0 2.7-.9 3.1-1.9"/>
  <path d="m293.7 81.4v11.4h-2.7l-4.7-7.4v7.4h-2.7v-11.4h3l4.4 6.9v-6.9h2.7"/>
  <path d="m305.4 86.2h6.2v3.7c-.7 1.6-2.8 3.1-5.6 3.1-2.9 0-5.1-1.6-5.8-3.7v-4.6c.7-2.1 3-3.7 5.8-3.7 2.9 0 4.9 1.5 5.6 3.2l-2.6 1c-.5-.9-1.4-1.7-3-1.7-1.6 0-2.7.9-3 1.9v3.1c.3.9 1.5 1.9 3 1.9 1.6 0 2.6-.9 2.9-1.5v-.5h-3.4v-2.2z"/>
  <path d="m327.7 92.3v.5h-2.8l-2.5-3.9h-1.7v3.9h-2.7v-11.4h5.2c1.9 0 3.6 1.1 4 2.4v2.6c-.3.8-1.1 1.5-2 2l2.5 3.9m-7-5.7h2.2c.8 0 1.4-.4 1.6-.8v-1.1c-.2-.5-.8-.8-1.6-.8h-2.2v2.7"/>
  <path d="m336.4 83.9v1.9h5.1v2.5h-5.1v1.9h5.6v2.5h-8.4v-11.3h8.4v2.5h-5.6"/>
  <path d="m347.6 90.2l2.4-1.1c.5 1 1.5 1.4 2.6 1.4.9 0 1.6-.3 1.9-.8v-.7c-.2-.3-.4-.5-.9-.6-.8-.3-1.9-.2-3-.6-1.3-.4-2.1-1.2-2.5-2v-2.3c.6-1.3 2.3-2.4 4.5-2.4 2.4 0 4.1 1.1 4.8 2.7l-2.4 1.1c-.5-1-1.4-1.4-2.4-1.4-.9 0-1.5.3-1.8.8v.7c.1.3.4.5.9.6.8.2 1.9.2 3 .6 1.3.4 2.1 1.2 2.5 2v2.4c-.7 1.3-2.4 2.4-4.7 2.4-2.4 0-4.2-1.1-4.9-2.8"/>
  <path d="m362.6 90.2l2.4-1.1c.5 1 1.5 1.4 2.6 1.4.9 0 1.6-.3 1.9-.8v-.7c-.2-.3-.4-.5-.9-.6-.8-.3-1.9-.2-3-.6-1.3-.4-2.1-1.2-2.5-2v-2.3c.6-1.3 2.3-2.4 4.5-2.4 2.4 0 4.1 1.1 4.8 2.7l-2.4 1.1c-.5-1-1.4-1.4-2.4-1.4-.9 0-1.5.3-1.8.8v.7c.1.3.4.5.9.6.8.2 1.9.2 3 .6 1.3.4 2.1 1.2 2.5 2v2.4c-.7 1.3-2.4 2.4-4.7 2.4-2.3 0-4.2-1.1-4.9-2.8"/>
 </g>
 <g fill="#1b3c6c">
  <path d="m279.8 18.2v17.6h-57.3v-78.8h19v61.2h38.3"/>
  <path d="m311.8-25.4v13h35.5v17.2h-35.5v13.4h39v17.6h-58v-78.8h58v17.6h-39"/>
  <path d="m360.8 32.6l24.6-36.2-24.6-36.2v-3.2h20.4l17 26 17.1-26h20.3v3.2l-24.5 36.2 24.6 36.2v3.2h-20.3l-17.1-26-17.1 26h-20.3v-3.2z"/>
  <path d="m183-43h-24.7l-29.3 75.6v3.2h18.8l5.1-13.9h35.1l5 13.9h19v-3.2l-29-75.6m-2.5 51l-10-7.3-10 7.3 3.8-11.8-10-7.3h12.4l3.8-11.8 3.8 11.8h12.4l-10 7.3 3.8 11.8"/>
 </g>
</svg>
