<svg xmlns="http://www.w3.org/2000/svg" width="257" height="55" viewBox="50.2 -2 257 55" enable-background="new 50.2 -2 257 55">
 <path d="m176.5 24.8c-.3-.6-.6-1.3-1-1.8-.2-.3-.4-.6-.3-1 .1-.5-.2-.8-.6-.9-.4-.2-.5-.5-.5-.9-.1-.9-.2-1.8-.2-2.7 0-.1 0-.3 0-.4 0-.1 0-.1 0-.2-.1-1-.2-2.1-.3-3.1-.1-.8-.2-.8-.9-.6-.3.1-.5 0-.8-.2-.4-.3-.9-.3-1.4-.6-.2-.1-.4-.1-.5-.3-.2-.3-.6-.3-.9-.5-.2-.1-.3-.1-.4.1-.2.3-.5.5-.9.3-.3-.2-.6-.3-.9 0-.3.2-.6.2-.9.2-.3 0-.8 0-.8.5 0 .1-.1.2-.2.1-.3-.2-.4.1-.6.4-.1-.8-1-.4-1.2-1.1-.3.4-.6.4-1 .1-.1-.1-.3-.2-.4-.1 0 .3-.4.3-.3.6 0 .1 0 .3-.2.3-.2 0-.3-.1-.3-.3 0-.1 0-.3 0-.5-.2.2-.4.2-.6.4-.1.2-.3.2-.5 0-.1-.2-.1-.4-.4-.3-.1 0-.2-.1-.2-.1 0-.5-.2-.2-.4-.1-.1.1-.2.2-.3.3-.2.2-.4.1-.6.1-.2 0-.1-.2-.1-.4.1-.3-.2-.2-.3-.2-.2 0-.4 0-.4-.2.1-.5-.1-.4-.4-.3-.3 0-.6-.1-.8.3-.1.1-.3-.1-.4-.1-.2-.1-.3-.3-.5-.2-.3.3-.7 0-.9-.1-.2-.1-.5-.2-.7-.2-.3 0-.5-.1-.5-.4 0-.3-.3-.5-.6-.6-.3-.1-.2.3-.5.2-.1 0-.1-.3-.4-.2-.7.2-.8.2-1.1-.4-.1-.2-.2-.4-.5-.2-.1.1-.2 0-.2-.2 0-.2 0-.4 0-.6 0-2.9-.1-5.7-.1-8.6-3.9 0-7.8 0-11.7 0 .1.3 0 .7 0 1.1-.1 5.2-.1 10.3-.2 15.5 0 .1 0 .3 0 .4 0 1.6 0 3.1-.1 4.7-.1.1-.3.1-.5.1-1 0-2.1 0-3.1 0-.5 0-1 0-1.6 0-.7-.1-1.4-.1-2.1-.1-.3 0-.6 0-.9 0-2.1-.1-4.3-.2-6.4-.3 0 .1 0 .3 0 .4 0 .2 0 .3 0 .5.5.1 1 .4 1.2.9.3.7.5 1.3 1.3 1.4 0 0 .1 0 .1.1.4.5.8 1 1.4 1.3.1 0 .2.2.2.3.1.5.5.8.9 1 .7.4 1.4.9 1.8 1.6.1.4 0 .8.4 1.1.3.3.4.7.4 1.2-.2.9.4 1.5.8 2 .4.5 1 .9 1.6 1.3.3.3.7.3 1.1.5.7.4 1.4.9 2.2 1.2.4.2.7.1.9-.2.1-.1.2-.2.3-.3.3-.2.7-.4.6-.9 0-.1.1-.2.1-.3.1-.2.2-.4.2-.6.1-.4.3-.8.7-1 .3-.2.8-.1 1-.4.3-.4.5-.3.8-.2.2.1.3.2.5.1.8-.1 1.5.2 2.2.1.3 0 .6.1.7.3.5.8 1.2 1.2 1.9 1.7.5.4 1 .8 1.2 1.4.3.7.7 1.3 1 2 .2.3.4.6.4 1 .1.6.3 1.2 1.1 1.3.2.5.6 1 .9 1.5.2.4.5.7 1 .9.4.2.7.5.6 1.1 0 .2 0 .3.1.5.2.3.3.6.2 1 0 .2 0 .3.2.5.5.7.9 1.4 1.2 2.2.1.4.4.8.9.7.4 0 .6.2.9.3.8.3 1.6.4 2.3 1.1 0 0 .1 0 .1 0 .7-.1 1.4 0 2 0 .4 0 1 .5 1.1.8.2 0 .4 0 .6 0-.1-.5.2-.5.5-.6.2-.1.3-.2.3-.4 0-.1 0-.3-.2-.3-.4.1-.4-.2-.6-.4-.2-.3-.1-.9-.6-1.1-.1 0 0-.1 0-.2 0-.5-.1-1-.4-1.4-.2-.2-.2-.4-.3-.7-.1-.3.3-.3.2-.5-.1-.3.2-.6.1-.9-.1-.2-.5 0-.6-.3.1-.1.2-.3.4-.3.3.1.5.1.5-.3.1-.4.2-.7.4-1.1.1-.2.1-.4-.1-.6-.2-.3-.6-.3-1-.7.5.2.9-.2 1.3.2 0 0 .1 0 .1-.1.4-.3.5-.7.6-1.3-.3.3-.5.5-.8.1 0 0 0 0 .1-.1.2 0 .2-.2.1-.3.4 0 .8.3.9-.4.2 0-.1.3.2.4.4-.2.3-.6.5-1 .2-.3.2-.5.4-.1.1.2.2.2.4.1.1-.1.3-.1.4-.2.4-.2.4-.4 0-.6-.2-.1-.5-.2-.7-.4-.1-.1-.2-.2-.1-.4.1-.1.2 0 .3.1.3.3.5.2.6-.1.1 0 .2.2.2.2.3-.2.6-.1.8.2.3-.2.7-.2.9-.6.1-.2.2-.3.5-.3.3 0 .5 0 .8-.1.7-.2.9-.9 1.6-1.1 0 0 .1-.1.1-.2.1-.2.2-.5.3-.7 0-.1 0-.2.2-.2.7-.1 1.1-1 .6-1.5-.2-.2-.4-.5-.4-.8 0-.1-.1-.2 0-.3.1 0 .2 0 .3.1.1.1.1.2.3.2 0-.1 0-.1.1-.2.2-.2.4-.5.6-.3.3.2.1.4-.1.6-.1.1-.1.2-.1.3.1.1.2.1.3.1.1 0 .3-.1.4 0 .2.4.4.1.6 0 .7-.3 1.3-.7 2.1-.9.3-.1.6-.1.2-.4-.1-.1 0-.3 0-.4.1-.6.7-.9.6-1.6 0-.3-.2-.6-.2-.9 0-.5-.1-1 .1-1.4.2-.4.4-.8.4-1.2 0-.1.1-.1.2-.1 0-.3 0-.5 0-.8.2.3.2.2.1.1" fill="#ec2027" fill-rule="evenodd"/>
 <path d="M165.5,21h-7.3v17.9h-5.6V21h-7.4v-5.2h20.3V21z" fill="#fff"/>
 <g fill="#1c3c6c">
  <path d="M76.7,38v0.9h-5.6l-1.5-4.1H59.4l-1.5,4.1h-5.5V38L61,15.8h7.2L76.7,38z"/>
  <path d="M96.6,33.7v5.2H79.8V15.8h5.6v17.9H96.6z"/>
  <path d="M106,21v3.8h10.4v5H106v3.9h11.4v5.2h-17V15.8h17V21H106z"/>
  <path d="m120.3 38l7.2-10.6-7.2-10.6v-.9h6l5 7.6 5-7.6h6v.9l-7.3 10.6 7.2 10.6v.9h-6l-5-7.6-5 7.6h-6v-.9z"/>
 </g>
 <g fill="#ec2027">
  <path d="m186.2 25.3v1.5h3.3v1.7h-3.3v2.8h-1.9v-7.7h5.5v1.7h-3.6"/>
  <path d="m193.7 29v-3.1c.5-1.4 2-2.5 4-2.5 1.9 0 3.5 1.1 4 2.5v3.1c-.5 1.4-2 2.5-4 2.5-2 0-3.5-1.1-4-2.5m6.1-.5v-2.1c-.2-.6-1-1.3-2.1-1.3-1.1 0-1.9.6-2.1 1.3v2.1c.2.6 1 1.3 2.1 1.3 1.1 0 1.8-.7 2.1-1.3"/>
  <path d="m212.6 31v.3h-1.9l-1.7-2.6h-1.2v2.6h-1.8v-7.7h3.5c1.3 0 2.4.8 2.7 1.7v1.7c-.2.5-.7 1-1.4 1.4l1.8 2.6m-4.8-3.9h1.5c.5 0 .9-.2 1.1-.5v-.8c-.2-.3-.6-.5-1.1-.5h-1.5v1.8"/>
  <path d="m227.7 28.5l1.7.7c-.5 1.3-1.9 2.2-3.7 2.2-1.9 0-3.4-1.1-3.9-2.5v-3.1c.5-1.4 2-2.5 3.9-2.5 1.7 0 3.2.9 3.7 2.2l-1.7.7c-.3-.6-.9-1.2-2-1.2s-1.8.6-2 1.3v2.1c.2.6.9 1.3 2 1.3s1.7-.6 2-1.2"/>
  <path d="m233.2 29v-3.1c.5-1.4 2-2.5 4-2.5 1.9 0 3.5 1.1 4 2.5v3.1c-.5 1.4-2 2.5-4 2.5-2 0-3.5-1.1-4-2.5m6-.5v-2.1c-.2-.6-1-1.3-2.1-1.3-1.1 0-1.9.6-2.1 1.3v2.1c.2.6 1 1.3 2.1 1.3 1.1 0 1.9-.7 2.1-1.3"/>
  <path d="m252.3 23.6v7.7h-1.9l-3.2-5v5h-1.8v-7.7h2.1l3 4.7v-4.7h1.8"/>
  <path d="m260.1 26.8h4.2v2.5c-.5 1.1-1.9 2.1-3.8 2.1-1.9 0-3.5-1.1-4-2.5v-3.1c.5-1.4 2-2.5 4-2.5 2 0 3.3 1 3.8 2.2l-1.8.7c-.3-.6-1-1.2-2-1.2-1.1 0-1.8.6-2.1 1.3v2.1c.2.6 1 1.3 2.1 1.3 1.1 0 1.8-.6 1.9-1v-.3h-2.3v-1.6"/>
  <path d="m275.3 31v.3h-1.9l-1.7-2.6h-1.2v2.6h-1.9v-7.7h3.5c1.3 0 2.4.8 2.7 1.7v1.7c-.2.5-.7 1-1.4 1.4l1.9 2.6m-4.8-3.9h1.5c.5 0 .9-.2 1.1-.5v-.8c-.2-.3-.6-.5-1.1-.5h-1.5v1.8"/>
  <path d="m281.1 25.3v1.3h3.5v1.7h-3.5v1.3h3.8v1.7h-5.7v-7.7h5.7v1.7h-3.8"/>
  <path d="m288.8 29.6l1.6-.8c.4.7 1 1 1.7 1 .6 0 1.1-.2 1.3-.5v-.5c-.1-.2-.3-.3-.6-.4-.5-.2-1.3-.1-2.1-.4-.9-.3-1.4-.8-1.7-1.4v-1.6c.4-.9 1.6-1.6 3.1-1.6 1.6 0 2.8.8 3.2 1.8l-1.6.8c-.3-.6-1-.9-1.6-.9-.6 0-1 .2-1.2.5v.4c.1.2.3.3.6.4.5.1 1.3.1 2.1.4.9.3 1.4.8 1.7 1.4v1.6c-.4.9-1.6 1.6-3.2 1.6-1.6.1-2.9-.7-3.3-1.8"/>
  <path d="m298.9 29.6l1.6-.8c.4.7 1 1 1.7 1 .6 0 1.1-.2 1.3-.5v-.5c-.1-.2-.3-.3-.6-.4-.5-.2-1.3-.1-2.1-.4-.9-.3-1.4-.8-1.7-1.4v-1.6c.4-.9 1.6-1.6 3.1-1.6 1.6 0 2.8.8 3.2 1.8l-1.6.8c-.3-.6-1-.9-1.6-.9-.6 0-1 .2-1.2.5v.4c.1.2.3.3.6.4.5.1 1.3.1 2.1.4.9.3 1.4.8 1.7 1.4v1.6c-.4.9-1.6 1.6-3.2 1.6-1.6.1-2.8-.7-3.3-1.8"/>
 </g>
 <path fill="#fff" d="m64.6 21.8l1.1 3.5h3.7l-3 2.1 1.2 3.4-3-2.1-2.9 2.1 1.1-3.4-2.9-2.1h3.6z"/>
</svg>
