<svg xmlns="http://www.w3.org/2000/svg" width="155" height="65" viewBox="53 -7 155 65" enable-background="new 53 -7 155 65">
 <path d="m206.4 24.6c-.3-.8-.7-1.6-1.2-2.2-.3-.4-.5-.8-.4-1.2.2-.6-.3-.9-.7-1.2-.5-.3-.6-.6-.6-1.1-.1-1.1-.2-2.2-.3-3.3 0-.2 0-.3-.1-.5 0-.1 0-.2 0-.2-.1-1.3-.3-2.5-.4-3.8-.1-1-.2-1-1.1-.7-.4.1-.6 0-1-.2-.5-.4-1.2-.4-1.7-.7-.2-.1-.5-.1-.7-.3-.3-.3-.7-.4-1.1-.7-.2-.1-.3-.1-.5.1-.3.3-.6.6-1.1.4-.4-.2-.7-.3-1.1 0-.3.3-.7.3-1.2.3-.4 0-1 0-1 .7 0 .1-.1.2-.2.1-.4-.3-.5.1-.8.4-.1-1-1.3-.4-1.4-1.3-.4.4-.7.5-1.2.1-.1-.1-.4-.2-.4-.1-.1.3-.4.4-.4.8 0 .1.1.4-.2.3-.2 0-.3-.2-.4-.3 0-.2 0-.4 0-.6-.2.3-.5.2-.7.5-.1.2-.4.2-.6-.1-.1-.2-.1-.5-.5-.3-.1 0-.2-.1-.2-.2-.1-.6-.3-.2-.5-.1-.1.1-.3.2-.4.4-.2.3-.5.2-.7.2-.2 0-.1-.3-.1-.4.1-.3-.2-.2-.4-.3-.2 0-.5 0-.4-.3.1-.6-.1-.5-.5-.4-.4 0-.8-.1-1 .4-.1.2-.4-.1-.5-.2-.2-.1-.4-.4-.6-.2-.4.3-.8.1-1.1-.1-.3-.1-.6-.2-.9-.2-.4 0-.6-.1-.6-.5 0-.4-.3-.6-.7-.7-.4-.2-.2.4-.6.3-.1 0-.1-.4-.5-.2-.8.3-.9.3-1.4-.5-.1-.2-.2-.5-.6-.3-.1.1-.2-.1-.2-.2 0-.2 0-.5 0-.7 0-3.5-.1-7-.1-10.5-4.8 0-9.6 0-14.3 0 .1.4 0 .9 0 1.3-.1 6.3-.2 12.6-.2 19 0 .2 0 .4 0 .5 0 1.9-.1 3.8-.1 5.7-.2.2-.4.1-.6.2-1.3 0-2.5 0-3.8 0-.6 0-1.3 0-1.9 0-.9-.1-1.8-.1-2.6-.1-.4 0-.7 0-1.1 0-2.6-.1-5.3-.2-7.9-.4 0 .2 0 .3 0 .5 0 .2 0 .4 0 .6.6.2 1.2.4 1.5 1.1.3.8.7 1.5 1.6 1.7.1 0 .1.1.1.1.5.6 1 1.3 1.8 1.6.1.1.2.2.2.4.1.7.6 1 1.1 1.3.9.5 1.7 1.1 2.2 1.9.1.5 0 1 .4 1.4.4.4.5.9.4 1.4-.2 1.1.5 1.8 1 2.5.5.6 1.3 1.1 2 1.6.4.3.9.4 1.3.6.9.5 1.7 1.1 2.6 1.5.5.2.8.1 1.1-.3.1-.2.2-.3.4-.4.3-.3.9-.5.7-1.1 0-.1.1-.3.2-.4.2-.2.2-.5.3-.8.1-.5.4-.9.9-1.2.4-.2 1-.1 1.2-.4.3-.5.6-.3.9-.2.2.1.4.2.6.2.9-.1 1.8.2 2.7.2.3 0 .7.1.9.4.6.9 1.5 1.5 2.4 2.1.6.5 1.2 1 1.4 1.7.3.9.8 1.6 1.3 2.4.2.4.4.7.5 1.2.2.7.3 1.5 1.3 1.5.3.7.8 1.2 1.1 1.9.2.4.6.9 1.2 1.1.5.2.9.7.7 1.3 0 .2 0 .4.1.6.3.4.3.8.3 1.2 0 .2 0 .4.2.6.7.8 1.1 1.7 1.4 2.7.2.5.5 1 1.2.9.5-.1.8.2 1.1.4.9.4 2 .5 2.8 1.3 0 0 .1 0 .2 0 .8-.1 1.7 0 2.5 0 .4 0 1.2.6 1.3 1 .2 0 .5 0 .7 0-.2-.6.3-.6.6-.7.3-.1.4-.2.3-.5 0-.2 0-.4-.2-.4-.5.1-.5-.3-.7-.5-.3-.4-.2-1-.7-1.3-.1 0 0-.2 0-.3 0-.6-.1-1.2-.5-1.7-.2-.3-.3-.5-.3-.8-.1-.3.3-.4.3-.6-.1-.4.3-.7.1-1.1-.1-.3-.6 0-.7-.4.2-.1.2-.4.5-.3.4.1.6.1.7-.4.1-.5.2-.9.4-1.3.1-.3.1-.5-.2-.7-.3-.3-.8-.4-1.2-.8.6.2 1.2-.2 1.6.2 0 0 .1 0 .1-.1.5-.3.7-.8.7-1.5-.4.4-.7.6-.9.1 0 0 .1 0 .1-.1.2-.1.2-.2.2-.4.4 0 1 .3 1.1-.4.3 0-.1.4.2.4.5-.2.4-.8.6-1.2.2-.4.3-.6.5-.1.1.2.2.2.4.1.2-.1.4-.2.5-.2.4-.2.5-.5 0-.8-.3-.2-.6-.3-.8-.5-.1-.1-.3-.3-.1-.5.1-.1.3 0 .4.1.3.4.6.3.8-.2.2 0 .2.3.2.2.4-.2.7-.1.9.3.4-.2.9-.3 1.1-.7.2-.3.3-.3.6-.3.3 0 .7 0 1-.1.8-.2 1.1-1.2 2-1.4.1 0 .1-.2.1-.3.1-.3.2-.6.3-.9 0-.1 0-.2.2-.2.8-.1 1.3-1.2.8-1.9-.3-.3-.4-.6-.5-.9 0-.1-.1-.3 0-.3.1-.1.3 0 .4.1.1.1.1.2.3.2 0-.1.1-.2.1-.2.2-.3.4-.6.8-.4.3.2.1.6-.2.8-.1.1-.1.2-.1.3.1.1.2.2.4.1.2 0 .4-.2.4-.1.3.5.5.2.8.1.8-.4 1.6-.9 2.6-1.1.3-.1.7-.1.3-.5-.1-.1 0-.3 0-.5.2-.7.9-1.1.7-1.9 0-.4-.2-.8-.2-1.1 0-.6-.2-1.2.1-1.8.2-.5.5-.9.4-1.5 0-.1.1-.1.2-.2 0-.3 0-.6 0-1 .3-.2.2-.3.2-.4" fill="#ec2027" fill-rule="evenodd"/>
 <path d="m192.8 19.9h-9v22h-6.8v-22h-9.1v-6.3h24.9v6.3" fill="#1c3c6c"/>
 <g fill="#fff">
  <path d="m84.1 40.7v1.2h-6.8l-1.8-5h-12.6l-1.8 5h-6.7v-1.2l10.5-27.1h8.9l10.3 27.1"/>
  <path d="m108.5 35.5v6.3h-20.6v-28.3h6.8v22h13.8"/>
  <path d="m119.9 19.9v4.6h12.7v6.2h-12.7v4.8h14v6.3h-20.8v-28.3h20.8v6.3h-14z"/>
  <path d="m137.5 40.7l8.8-13-8.8-13v-1.2h7.3l6.1 9.3 6.1-9.3h7.3v1.2l-8.8 13 8.8 13v1.2h-7.3l-6.1-9.3-6.1 9.3h-7.3v-1.2"/>
  <path d="m89.1 47.2v.9h2.1v1.1h-2.1v1.8h-1.2v-4.9h3.4v1.1h-2.2"/>
  <path d="m93.9 49.5v-2c.3-.9 1.3-1.6 2.5-1.6 1.2 0 2.2.7 2.5 1.6v2c-.3.9-1.3 1.6-2.5 1.6-1.3 0-2.2-.7-2.5-1.6m3.8-.3v-1.3c-.1-.4-.6-.8-1.3-.8-.7 0-1.2.4-1.3.8v1.3c.1.4.6.8 1.3.8.6 0 1.1-.4 1.3-.8"/>
  <path d="m105.8 50.8v.2h-1.2l-1.1-1.7h-.7v1.7h-1.2v-4.9h2.2c.8 0 1.5.5 1.7 1v1.1c-.1.3-.5.7-.9.9l1.2 1.7m-3-2.5h.9c.3 0 .6-.2.7-.3v-.5c-.1-.2-.4-.3-.7-.3h-.9v1.1"/>
  <path d="m115.3 49.2l1.1.4c-.3.8-1.2 1.4-2.3 1.4-1.2 0-2.1-.7-2.5-1.6v-2c.3-.9 1.2-1.6 2.5-1.6 1.1 0 2 .6 2.3 1.4l-1.1.4c-.2-.4-.6-.8-1.2-.8s-1.1.4-1.3.8v1.3c.1.4.6.8 1.3.8s1-.1 1.2-.5"/>
  <path d="m118.8 49.5v-2c.3-.9 1.3-1.6 2.5-1.6 1.2 0 2.2.7 2.5 1.6v2c-.3.9-1.3 1.6-2.5 1.6-1.3 0-2.2-.7-2.5-1.6m3.8-.3v-1.3c-.1-.4-.6-.8-1.3-.8-.7 0-1.2.4-1.3.8v1.3c.1.4.6.8 1.3.8.6 0 1.1-.4 1.3-.8"/>
  <path d="m130.8 46.1v4.9h-1.2l-2-3.2v3.2h-1.1v-4.9h1.3l1.9 3v-3h1.1"/>
  <path d="m135.8 48.2h2.6v1.6c-.3.7-1.2 1.3-2.4 1.3-1.2 0-2.2-.7-2.5-1.6v-2c.3-.9 1.3-1.6 2.5-1.6 1.2 0 2.1.6 2.4 1.4l-1.1.4c-.2-.4-.6-.7-1.3-.7-.7 0-1.2.4-1.3.8v1.3c.1.4.6.8 1.3.8.7 0 1.1-.4 1.2-.6v-.2h-1.5v-.9z"/>
  <path d="m145.3 50.8v.2h-1.2l-1.1-1.7h-.7v1.7h-1.2v-4.9h2.2c.8 0 1.5.5 1.7 1v1.1c-.1.3-.5.7-.9.9l1.2 1.7m-3-2.5h.9c.3 0 .6-.2.7-.3v-.5c-.1-.2-.4-.3-.7-.3h-.9v1.1"/>
  <path d="M149,47.2V48h2.2v1.1H149v0.8h2.4V51h-3.6v-4.9h3.6v1.1H149z"/>
  <path d="m153.8 49.9l1-.5c.2.4.6.6 1.1.6.4 0 .7-.1.8-.3v-.3c-.1-.1-.2-.2-.4-.3-.3-.1-.8-.1-1.3-.2-.5-.2-.9-.5-1.1-.9v-1c.3-.6 1-1 1.9-1 1 0 1.7.5 2 1.2l-1 .5c-.2-.4-.6-.6-1-.6-.4 0-.7.1-.8.3v.2c.1.1.2.2.4.3.3.1.8.1 1.3.2.5.2.9.5 1.1.9v1c-.3.6-1 1-2 1-.9.1-1.7-.4-2-1.1"/>
  <path d="m160.3 49.9l1-.5c.2.4.6.6 1.1.6.4 0 .7-.1.8-.3v-.3c-.1-.1-.2-.2-.4-.3-.3-.1-.8-.1-1.3-.2-.5-.2-.9-.5-1.1-.9v-1c.3-.6 1-1 1.9-1 1 0 1.7.5 2 1.2l-1 .5c-.2-.4-.6-.6-1-.6-.4 0-.7.1-.8.3v.2c.1.1.2.2.4.3.3.1.8.1 1.3.2.5.2.9.5 1.1.9v1c-.3.6-1 1-2 1-1 .1-1.8-.4-2-1.1"/>
 </g>
 <path fill="#1c3c6c" d="m69.3 20.9l1.4 4.2h4.4l-3.6 2.6 1.4 4.2-3.6-2.6-3.6 2.6 1.4-4.2-3.6-2.6h4.4z"/>
</svg>
